# xmcd
#
# Track frame offsets:
#	150
#	16969
#	35763
#	52716
#	72402
#	91538
#	108409
#	125908
#	146334
#	166162
#
# Disc length: 2432 seconds
#
# Revision: 4
# Processed by: cddbd v1.5.2PL0 Copyright (c) Steve Scherf et al.
# Submitted via: audiograbber 1.83.01
#
DISCID=7d097e0a
DTITLE=AC-DC - Fly on the Wall
DYEAR=1985
DGENRE=Hard Rock
TTITLE0=Fly on the Wall
TTITLE1=Shake Your Foundations
TTITLE2=First Blood
TTITLE3=Danger
TTITLE4=Sink the Pink
TTITLE5=Playing With Girls
TTITLE6=Stand Up
TTITLE7=Hell or High Water
TTITLE8=Back in Business
TTITLE9=Send for the Man
EXTD=
EXTT0=
EXTT1=
EXTT2=
EXTT3=
EXTT4=
EXTT5=
EXTT6=
EXTT7=
EXTT8=
EXTT9=
PLAYORDER=
